<?xml version="1.0" standalone="no"?>
<!DOCTYPE svg PUBLIC "-//W3C//DTD SVG 20010904//EN"
 "http://www.w3.org/TR/2001/REC-SVG-20010904/DTD/svg10.dtd">
<svg version="1.0" xmlns="http://www.w3.org/2000/svg"
 width="512.000000pt" height="512.000000pt" viewBox="0 0 512.000000 512.000000"
 preserveAspectRatio="xMidYMid meet">
<metadata>
Created by potrace 1.11, written by Peter Selinger 2001-2013
</metadata>
<g transform="translate(0.000000,512.000000) scale(0.100000,-0.100000)"
fill="#000000" stroke="none">
<path d="M2378 5115 c-2 -1 -34 -5 -73 -9 -38 -3 -97 -10 -130 -16 -33 -6 -76
-13 -95 -16 -106 -17 -413 -105 -434 -125 -6 -5 -16 -9 -23 -9 -29 0 -251
-109 -387 -190 -210 -126 -449 -326 -603 -506 -71 -83 -79 -92 -99 -119 -10
-15 -33 -46 -50 -69 -128 -171 -262 -426 -337 -641 -27 -77 -74 -235 -81 -275
-2 -14 -7 -36 -10 -50 -44 -190 -65 -557 -44 -780 21 -217 83 -475 165 -685
37 -93 123 -273 161 -335 12 -19 29 -48 38 -65 19 -35 138 -207 156 -227 7 -7
29 -34 48 -58 191 -247 516 -508 829 -665 387 -194 749 -276 1191 -269 118 2
226 5 240 8 14 2 45 7 70 10 25 4 92 16 150 27 58 12 115 23 128 25 38 7 320
103 370 125 481 216 859 531 1135 945 116 174 278 508 302 624 1 3 11 37 22
75 30 100 54 208 68 305 3 19 7 44 10 55 19 94 27 457 13 605 -13 133 -45 301
-80 424 -11 38 -21 76 -23 85 -4 18 -52 149 -84 228 -35 89 -120 251 -188 361
-202 328 -487 613 -823 826 -287 181 -702 330 -1012 362 -35 3 -67 9 -72 12
-9 5 -442 13 -448 7z"/>
</g>
</svg>
